<svg xmlns="http://www.w3.org/2000/svg"  viewBox="0 0 48 48" width="144px" height="144px"><path d="M 16.5 5 A 1.50015 1.50015 0 0 0 15 6.5 L 15 14 L 11.5 14 C 7.3754991 14 4 17.375499 4 21.5 L 4 35.5 C 4 39.624501 7.3754991 43 11.5 43 L 36.5 43 C 40.624501 43 44 39.624501 44 35.5 L 44 21.5 C 44 17.375499 40.624501 14 36.5 14 L 33 14 L 33 6.5 A 1.50015 1.50015 0 0 0 31.5 5 L 16.5 5 z M 18 8 L 30 8 L 30 14 L 18 14 L 18 8 z M 11.5 17 L 16.5 17 L 31.5 17 L 36.5 17 C 39.003499 17 41 18.996501 41 21.5 L 41 35.5 C 41 38.003499 39.003499 40 36.5 40 L 11.5 40 C 8.9965009 40 7 38.003499 7 35.5 L 7 21.5 C 7 18.996501 8.9965009 17 11.5 17 z"/></svg>